<?xml version="1.0" encoding="UTF-8"?>
<svg version="1.1" xmlns="http://www.w3.org/2000/svg" width="474" height="399">
<path d="M0 0 C7.28489809 3.39104405 13.48770233 8.21813855 19.74609375 13.1953125 C20.36822754 13.68596191 20.99036133 14.17661133 21.63134766 14.68212891 C40.49683028 29.59848063 59.11577642 46.01334089 73.74609375 65.1953125 C74.29394531 65.02515625 74.84179688 64.855 75.40625 64.6796875 C112.39410837 53.37282998 148.76857827 51.43780091 185.81298828 63.59863281 C188.09839016 64.30405365 190.38681778 64.8060557 192.74609375 65.1953125 C193.42929687 64.36773437 194.1125 63.54015625 194.81640625 62.6875 C201.80028366 54.36724564 209.20677634 46.51338294 216.87109375 38.8203125 C217.77617676 37.90620605 218.68125977 36.99209961 219.61376953 36.05029297 C225.68365911 30.0067227 232.03677934 24.51445592 238.74609375 19.1953125 C239.9736551 18.19523523 241.200367 17.19411326 242.42578125 16.19140625 C264.69439081 -1.74127249 264.69439081 -1.74127249 275.74609375 -0.8046875 C280.26243585 1.36663082 282.24383223 3.46931532 284.09912109 8.1003418 C285.33383124 12.09847301 285.61997319 16.1637561 285.93359375 20.3203125 C286.01254883 21.31675781 286.09150391 22.31320313 286.17285156 23.33984375 C288.62756639 57.89712788 288.036923 96.05470367 277.8359375 129.4765625 C276.24226333 135.68239646 277.60833436 139.10877256 280.74609375 144.5078125 C281.6101425 146.16095283 282.46818667 147.81724494 283.3203125 149.4765625 C283.74103027 150.27964844 284.16174805 151.08273438 284.59521484 151.91015625 C296.23369643 175.01923296 296.49641339 203.04953296 293.74609375 228.1953125 C296.16287185 228.05116457 298.57952559 227.90541616 300.99609375 227.7578125 C301.72393066 227.71342041 302.45176758 227.66902832 303.20166016 227.62329102 C307.51512746 227.35387687 311.81678373 227.02615676 316.12109375 226.6328125 C317.99572649 226.48233178 319.87072299 226.33629782 321.74609375 226.1953125 C322.66519531 226.11667969 323.58429688 226.03804687 324.53125 225.95703125 C328.97690082 225.72787399 331.06969444 225.74888896 334.87109375 228.2578125 C337.24786394 231.98141913 337.521432 233.85341827 336.74609375 238.1953125 C334.11580591 241.52589983 332.45557909 243.00480724 328.32373047 244.11425781 C327.03740723 244.24928711 325.75108398 244.38431641 324.42578125 244.5234375 C323.72647491 244.60277527 323.02716858 244.68211304 322.30667114 244.76385498 C320.07980671 245.01153567 317.85117943 245.22878056 315.62109375 245.4453125 C314.14691954 245.60478781 312.67295666 245.76622944 311.19921875 245.9296875 C303.39129077 246.78274802 295.57102711 247.51671607 287.74609375 248.1953125 C287.55668213 248.79400146 287.36727051 249.39269043 287.17211914 250.00952148 C285.60394968 254.9348988 283.74666178 259.5873838 281.515625 264.25 C280.56217042 266.31159086 280.56217042 266.31159086 280.74609375 269.1953125 C281.86580566 269.44700195 282.98551758 269.69869141 284.13916016 269.95800781 C288.31298774 270.89968581 292.48289995 271.85780307 296.65185547 272.82080078 C298.45292021 273.2344409 300.25500143 273.64368175 302.05810547 274.04833984 C304.6574561 274.63251196 307.25267772 275.23267831 309.84765625 275.8359375 C310.64789215 276.01215637 311.44812805 276.18837524 312.27261353 276.36993408 C317.12120257 277.51704196 320.82101775 278.96271733 324.74609375 282.1953125 C325.98950081 286.21810003 326.1903442 288.22219248 324.43359375 292.0703125 C322.74609375 294.1953125 322.74609375 294.1953125 320.74609375 295.1953125 C312.8198557 296.00329295 305.45928458 294.26763616 297.80859375 292.3828125 C296.70580078 292.12177734 295.60300781 291.86074219 294.46679688 291.59179688 C288.31010708 290.1207294 282.22964824 288.51185051 276.18139648 286.6418457 C273.36084091 286.12467316 271.48017048 286.36330267 268.74609375 287.1953125 C266.67223034 289.22615781 266.67223034 289.22615781 264.80859375 291.8828125 C246.87448483 314.7214718 222.2862969 332.79275631 194.74609375 342.1953125 C193.8012915 342.52305664 193.8012915 342.52305664 192.83740234 342.85742188 C187.86497061 344.55175035 182.84710554 345.94414068 177.74609375 347.1953125 C176.94816406 347.39431152 176.15023437 347.59331055 175.328125 347.79833984 C161.07501749 351.17102284 146.94581882 351.5897285 132.37109375 351.6328125 C131.48438995 351.6389859 130.59768616 351.6451593 129.68411255 351.65151978 C114.09175143 351.7213016 99.13830564 350.00290476 84.05859375 345.8828125 C83.27226562 345.66971436 82.4859375 345.45661621 81.67578125 345.23706055 C63.07719467 340.03164171 44.84550177 331.2943535 29.74609375 319.1953125 C28.87597656 318.5146875 28.00585938 317.8340625 27.109375 317.1328125 C24.63337064 315.17865659 22.18525142 313.19517076 19.74609375 311.1953125 C18.78896484 310.42574219 18.78896484 310.42574219 17.8125 309.640625 C12.34196682 305.13261325 7.72557881 299.98260213 3.62109375 294.203125 C2.87859375 293.18992187 2.13609375 292.17671875 1.37109375 291.1328125 C0.70335938 290.17246094 0.035625 289.21210938 -0.65234375 288.22265625 C-3.19476756 285.82229424 -3.19476756 285.82229424 -6.984375 286.1328125 C-15.2226061 287.56440458 -23.3624483 289.78666179 -31.4675293 291.83227539 C-52.77145284 297.18528587 -52.77145284 297.18528587 -58.87890625 293.6953125 C-60.76503233 290.26599236 -61.2682605 287.01405793 -60.25390625 283.1953125 C-57.10725437 279.21439121 -53.74222928 278.17703087 -48.9609375 277.125 C-48.25547287 276.95783478 -47.55000824 276.79066956 -46.82316589 276.61843872 C-44.57382909 276.08882701 -42.32047452 275.5793657 -40.06640625 275.0703125 C-38.57065694 274.72136373 -37.07521017 274.3711154 -35.58007812 274.01953125 C-28.48344758 272.35823501 -21.37258658 270.75932607 -14.25390625 269.1953125 C-14.87005306 265.33039161 -16.05452225 262.21264218 -17.75390625 258.6953125 C-19.46294051 255.15800904 -20.54607865 252.05119526 -21.25390625 248.1953125 C-22.42373047 248.08461426 -23.59355469 247.97391602 -24.79882812 247.85986328 C-29.16792145 247.4447892 -33.53620502 247.02166471 -37.90429688 246.59619141 C-39.78950435 246.41367903 -41.67492033 246.23330647 -43.56054688 246.05517578 C-46.28183636 245.79771763 -49.00226565 245.53239431 -51.72265625 245.265625 C-52.97314758 245.14986618 -52.97314758 245.14986618 -54.24890137 245.0317688 C-66.80072861 243.77800775 -66.80072861 243.77800775 -71.19140625 240.9453125 C-72.78776864 238.31600973 -73.13120972 236.26272586 -73.25390625 233.1953125 C-71.64978777 229.66625183 -70.51231263 228.36758342 -67.25390625 226.1953125 C-58.8662162 225.1179556 -49.99673141 226.80579577 -41.62890625 227.6953125 C-40.22921484 227.8403095 -38.82947544 227.98484406 -37.4296875 228.12890625 C-34.03726225 228.47984679 -30.6453921 228.83542576 -27.25390625 229.1953125 C-27.31449219 228.61676514 -27.37507813 228.03821777 -27.4375 227.44213867 C-30.3744358 199.05834856 -29.29077832 172.38043543 -16.34375 146.30078125 C-16.01866455 145.63828369 -15.6935791 144.97578613 -15.35864258 144.29321289 C-14.72345023 143.0141226 -14.07181689 141.74301518 -13.40112305 140.48217773 C-11.12001247 135.91933042 -11.14831813 133.11199044 -12.25390625 128.1953125 C-12.54432978 126.7906453 -12.83330631 125.3856784 -13.12109375 123.98046875 C-13.28311279 123.22378906 -13.44513184 122.46710938 -13.61206055 121.6875 C-16.25071083 109.28322621 -17.92327368 96.80204966 -19.25390625 84.1953125 C-19.35179443 83.34235596 -19.44968262 82.48939941 -19.55053711 81.6105957 C-20.52988949 71.91928796 -20.4399851 62.19090244 -20.43920898 52.46069336 C-20.44139392 49.40008596 -20.45960063 46.33984077 -20.47851562 43.27929688 C-20.57466629 10.80128216 -20.57466629 10.80128216 -13.25390625 1.1953125 C-8.93400881 -1.51319463 -4.83960842 -1.72783247 0 0 Z " fill="#FDFEFE" transform="translate(93.25390625,32.8046875)"/>
<path d="M0 0 C7.28489809 3.39104405 13.48770233 8.21813855 19.74609375 13.1953125 C20.36822754 13.68596191 20.99036133 14.17661133 21.63134766 14.68212891 C40.49683028 29.59848063 59.11577642 46.01334089 73.74609375 65.1953125 C74.29394531 65.02515625 74.84179688 64.855 75.40625 64.6796875 C112.39410837 53.37282998 148.76857827 51.43780091 185.81298828 63.59863281 C188.09839016 64.30405365 190.38681778 64.8060557 192.74609375 65.1953125 C193.42929687 64.36773437 194.1125 63.54015625 194.81640625 62.6875 C201.80028366 54.36724564 209.20677634 46.51338294 216.87109375 38.8203125 C217.77617676 37.90620605 218.68125977 36.99209961 219.61376953 36.05029297 C225.68365911 30.0067227 232.03677934 24.51445592 238.74609375 19.1953125 C239.9736551 18.19523523 241.200367 17.19411326 242.42578125 16.19140625 C264.69439081 -1.74127249 264.69439081 -1.74127249 275.74609375 -0.8046875 C280.26243585 1.36663082 282.24383223 3.46931532 284.09912109 8.1003418 C285.33383124 12.09847301 285.61997319 16.1637561 285.93359375 20.3203125 C286.01254883 21.31675781 286.09150391 22.31320313 286.17285156 23.33984375 C288.62756639 57.89712788 288.036923 96.05470367 277.8359375 129.4765625 C276.24226333 135.68239646 277.60833436 139.10877256 280.74609375 144.5078125 C281.6101425 146.16095283 282.46818667 147.81724494 283.3203125 149.4765625 C283.74103027 150.27964844 284.16174805 151.08273438 284.59521484 151.91015625 C296.23369643 175.01923296 296.49641339 203.04953296 293.74609375 228.1953125 C296.16287185 228.05116457 298.57952559 227.90541616 300.99609375 227.7578125 C301.72393066 227.71342041 302.45176758 227.66902832 303.20166016 227.62329102 C307.51512746 227.35387687 311.81678373 227.02615676 316.12109375 226.6328125 C317.99572649 226.48233178 319.87072299 226.33629782 321.74609375 226.1953125 C322.66519531 226.11667969 323.58429688 226.03804687 324.53125 225.95703125 C328.97690082 225.72787399 331.06969444 225.74888896 334.87109375 228.2578125 C337.24786394 231.98141913 337.521432 233.85341827 336.74609375 238.1953125 C334.11580591 241.52589983 332.45557909 243.00480724 328.32373047 244.11425781 C327.03740723 244.24928711 325.75108398 244.38431641 324.42578125 244.5234375 C323.72647491 244.60277527 323.02716858 244.68211304 322.30667114 244.76385498 C320.07980671 245.01153567 317.85117943 245.22878056 315.62109375 245.4453125 C314.14691954 245.60478781 312.67295666 245.76622944 311.19921875 245.9296875 C303.39129077 246.78274802 295.57102711 247.51671607 287.74609375 248.1953125 C287.55668213 248.79400146 287.36727051 249.39269043 287.17211914 250.00952148 C285.60394968 254.9348988 283.74666178 259.5873838 281.515625 264.25 C280.56217042 266.31159086 280.56217042 266.31159086 280.74609375 269.1953125 C281.86580566 269.44700195 282.98551758 269.69869141 284.13916016 269.95800781 C288.31298774 270.89968581 292.48289995 271.85780307 296.65185547 272.82080078 C298.45292021 273.2344409 300.25500143 273.64368175 302.05810547 274.04833984 C304.6574561 274.63251196 307.25267772 275.23267831 309.84765625 275.8359375 C310.64789215 276.01215637 311.44812805 276.18837524 312.27261353 276.36993408 C317.12120257 277.51704196 320.82101775 278.96271733 324.74609375 282.1953125 C325.98950081 286.21810003 326.1903442 288.22219248 324.43359375 292.0703125 C322.74609375 294.1953125 322.74609375 294.1953125 320.74609375 295.1953125 C312.8198557 296.00329295 305.45928458 294.26763616 297.80859375 292.3828125 C296.70580078 292.12177734 295.60300781 291.86074219 294.46679688 291.59179688 C288.31010708 290.1207294 282.22964824 288.51185051 276.18139648 286.6418457 C273.36084091 286.12467316 271.48017048 286.36330267 268.74609375 287.1953125 C266.67223034 289.22615781 266.67223034 289.22615781 264.80859375 291.8828125 C246.87448483 314.7214718 222.2862969 332.79275631 194.74609375 342.1953125 C193.8012915 342.52305664 193.8012915 342.52305664 192.83740234 342.85742188 C187.86497061 344.55175035 182.84710554 345.94414068 177.74609375 347.1953125 C176.94816406 347.39431152 176.15023437 347.59331055 175.328125 347.79833984 C161.07501749 351.17102284 146.94581882 351.5897285 132.37109375 351.6328125 C131.48438995 351.6389859 130.59768616 351.6451593 129.68411255 351.65151978 C114.09175143 351.7213016 99.13830564 350.00290476 84.05859375 345.8828125 C83.27226562 345.66971436 82.4859375 345.45661621 81.67578125 345.23706055 C63.07719467 340.03164171 44.84550177 331.2943535 29.74609375 319.1953125 C28.87597656 318.5146875 28.00585938 317.8340625 27.109375 317.1328125 C24.63337064 315.17865659 22.18525142 313.19517076 19.74609375 311.1953125 C18.78896484 310.42574219 18.78896484 310.42574219 17.8125 309.640625 C12.34196682 305.13261325 7.72557881 299.98260213 3.62109375 294.203125 C2.87859375 293.18992187 2.13609375 292.17671875 1.37109375 291.1328125 C0.70335938 290.17246094 0.035625 289.21210938 -0.65234375 288.22265625 C-3.19476756 285.82229424 -3.19476756 285.82229424 -6.984375 286.1328125 C-15.2226061 287.56440458 -23.3624483 289.78666179 -31.4675293 291.83227539 C-52.77145284 297.18528587 -52.77145284 297.18528587 -58.87890625 293.6953125 C-60.76503233 290.26599236 -61.2682605 287.01405793 -60.25390625 283.1953125 C-57.10725437 279.21439121 -53.74222928 278.17703087 -48.9609375 277.125 C-48.25547287 276.95783478 -47.55000824 276.79066956 -46.82316589 276.61843872 C-44.57382909 276.08882701 -42.32047452 275.5793657 -40.06640625 275.0703125 C-38.57065694 274.72136373 -37.07521017 274.3711154 -35.58007812 274.01953125 C-28.48344758 272.35823501 -21.37258658 270.75932607 -14.25390625 269.1953125 C-14.87005306 265.33039161 -16.05452225 262.21264218 -17.75390625 258.6953125 C-19.46294051 255.15800904 -20.54607865 252.05119526 -21.25390625 248.1953125 C-22.42373047 248.08461426 -23.59355469 247.97391602 -24.79882812 247.85986328 C-29.16792145 247.4447892 -33.53620502 247.02166471 -37.90429688 246.59619141 C-39.78950435 246.41367903 -41.67492033 246.23330647 -43.56054688 246.05517578 C-46.28183636 245.79771763 -49.00226565 245.53239431 -51.72265625 245.265625 C-52.97314758 245.14986618 -52.97314758 245.14986618 -54.24890137 245.0317688 C-66.80072861 243.77800775 -66.80072861 243.77800775 -71.19140625 240.9453125 C-72.78776864 238.31600973 -73.13120972 236.26272586 -73.25390625 233.1953125 C-71.64978777 229.66625183 -70.51231263 228.36758342 -67.25390625 226.1953125 C-58.8662162 225.1179556 -49.99673141 226.80579577 -41.62890625 227.6953125 C-40.22921484 227.8403095 -38.82947544 227.98484406 -37.4296875 228.12890625 C-34.03726225 228.47984679 -30.6453921 228.83542576 -27.25390625 229.1953125 C-27.31449219 228.61676514 -27.37507813 228.03821777 -27.4375 227.44213867 C-30.3744358 199.05834856 -29.29077832 172.38043543 -16.34375 146.30078125 C-16.01866455 145.63828369 -15.6935791 144.97578613 -15.35864258 144.29321289 C-14.72345023 143.0141226 -14.07181689 141.74301518 -13.40112305 140.48217773 C-11.12001247 135.91933042 -11.14831813 133.11199044 -12.25390625 128.1953125 C-12.54432978 126.7906453 -12.83330631 125.3856784 -13.12109375 123.98046875 C-13.28311279 123.22378906 -13.44513184 122.46710938 -13.61206055 121.6875 C-16.25071083 109.28322621 -17.92327368 96.80204966 -19.25390625 84.1953125 C-19.35179443 83.34235596 -19.44968262 82.48939941 -19.55053711 81.6105957 C-20.52988949 71.91928796 -20.4399851 62.19090244 -20.43920898 52.46069336 C-20.44139392 49.40008596 -20.45960063 46.33984077 -20.47851562 43.27929688 C-20.57466629 10.80128216 -20.57466629 10.80128216 -13.25390625 1.1953125 C-8.93400881 -1.51319463 -4.83960842 -1.72783247 0 0 Z M98.74609375 81.1953125 C98.04274902 81.36691895 97.3394043 81.53852539 96.61474609 81.71533203 C61.46508666 90.56801466 28.77831979 112.58053094 9.8828125 143.83984375 C-5.01772575 169.42771652 -11.51081006 198.27174997 -5.0078125 227.51953125 C-4.51760689 230.09456033 -4.51760689 230.09456033 -3.25390625 231.1953125 C5.27456671 232.42448926 13.97969021 232.48495533 22.58007812 232.71289062 C34.69072737 233.13994612 34.69072737 233.13994612 38.74609375 237.1953125 C39.16338558 240.95093898 39.41371304 243.25379812 37.18457031 246.39746094 C33.80984694 248.88559299 31.51828876 248.65201401 27.35546875 248.5859375 C26.29854828 248.57744781 26.29854828 248.57744781 25.22027588 248.56878662 C22.97817947 248.54646328 20.73770387 248.49628004 18.49609375 248.4453125 C16.9726794 248.42524202 15.44923989 248.4069922 13.92578125 248.390625 C10.19869545 248.34661368 6.47255288 248.27761622 2.74609375 248.1953125 C3.4267278 251.94836695 4.38372775 254.70099142 6.30859375 258.0078125 C6.76363281 258.79800781 7.21867187 259.58820313 7.6875 260.40234375 C8.03683594 260.99402344 8.38617188 261.58570313 8.74609375 262.1953125 C15.99536192 261.86124484 22.4508892 260.25125819 29.3515625 258.03515625 C32.99187466 257.13450364 36.01064429 256.90452901 39.74609375 257.1953125 C42.74609375 259.3203125 42.74609375 259.3203125 44.74609375 262.1953125 C44.74609375 265.38770592 44.49466631 267.25483554 42.48901367 269.7746582 C40.34486552 271.52235369 38.52444747 272.0739433 35.859375 272.80078125 C34.92158203 273.06181641 33.98378906 273.32285156 33.01757812 273.59179688 C32.04111328 273.85283203 31.06464844 274.11386719 30.05859375 274.3828125 C28.57649414 274.79176758 28.57649414 274.79176758 27.06445312 275.20898438 C24.6273068 275.88008264 22.18800087 276.5417908 19.74609375 277.1953125 C20.07609375 278.1853125 20.40609375 279.1753125 20.74609375 280.1953125 C21.40609375 280.1953125 22.06609375 280.1953125 22.74609375 280.1953125 C22.98457031 280.75734375 23.22304687 281.319375 23.46875 281.8984375 C25.02705467 284.70052664 26.9236605 286.67424657 29.18359375 288.9453125 C30.35728516 290.14414062 30.35728516 290.14414062 31.5546875 291.3671875 C33.65439898 293.51560661 33.65439898 293.51560661 36.74609375 293.1953125 C36.96007812 293.75863281 37.1740625 294.32195312 37.39453125 294.90234375 C47.27331259 311.66201035 77.28709944 321.43556939 94.93359375 326.0703125 C103.40021871 328.24978842 111.29812826 329.35915412 120.05078125 329.3984375 C121.0475589 329.40413757 122.04433655 329.40983765 123.07131958 329.41571045 C125.18099923 329.42513758 127.29069345 329.43168532 129.40039062 329.43554688 C132.57579526 329.44517515 135.75053041 329.47618846 138.92578125 329.5078125 C153.79742811 329.58624022 167.58940667 328.43165293 181.74609375 323.5078125 C182.48827148 323.25362549 183.23044922 322.99943848 183.99511719 322.73754883 C206.44246552 314.76936026 228.3341189 300.51461729 243.74609375 282.1953125 C245.01617757 279.53799111 245.01617757 279.53799111 245.74609375 277.1953125 C238.08859329 274.83084919 230.42664805 272.48387495 222.74609375 270.1953125 C221.52387153 262.86197917 221.52387153 262.86197917 222.55859375 259.7578125 C223.74609375 258.1953125 223.74609375 258.1953125 225.74609375 257.1953125 C232.94719187 256.43730217 238.85448187 258.19117634 245.62915039 260.41650391 C249.81515739 261.76366937 253.28515682 262.4763164 257.74609375 262.1953125 C258.75378895 260.4288468 259.75201089 258.65697427 260.74609375 256.8828125 C261.58140625 255.40361328 261.58140625 255.40361328 262.43359375 253.89453125 C263.96474128 251.24588779 263.96474128 251.24588779 263.74609375 248.1953125 C262.8331958 248.22149658 261.92029785 248.24768066 260.97973633 248.2746582 C257.57837031 248.36009792 254.17815117 248.42266249 250.77612305 248.4699707 C249.3065385 248.49504894 247.83707788 248.52912106 246.36791992 248.57250977 C244.25017694 248.63346749 242.13408799 248.66158566 240.015625 248.68359375 C238.74307861 248.70977783 237.47053223 248.73596191 236.15942383 248.76293945 C231.83657301 248.04406182 230.36836993 246.64472237 227.74609375 243.1953125 C227.682903 239.53024876 227.74240153 237.27379149 230.29589844 234.5300293 C233.76375735 232.64095151 237.14950974 232.6072 241.01171875 232.46484375 C242.20181549 232.40462288 242.20181549 232.40462288 243.41595459 232.34318542 C245.94224179 232.21834544 248.46891263 232.11283134 250.99609375 232.0078125 C252.7123005 231.92640435 254.42844798 231.84373651 256.14453125 231.75976562 C260.34450519 231.55700808 264.54492782 231.37157413 268.74609375 231.1953125 C269.23652397 229.9429052 269.72164776 228.68841929 270.20458984 227.43310547 C270.47532318 226.73474579 270.74605652 226.03638611 271.0249939 225.31686401 C278.43744102 203.50866598 271.67751659 174.40234783 261.87255859 154.35644531 C255.39194434 141.92332928 247.6504026 131.08561243 237.74609375 121.1953125 C236.8118824 120.19570964 235.8809433 119.19303961 234.953125 118.1875 C211.97667276 93.67223629 176.56117142 79.29782688 143.35253906 78.06982422 C128.28271156 77.676578 113.44365695 77.55025993 98.74609375 81.1953125 Z " fill="#7DC2EA" transform="translate(93.25390625,32.8046875)"/>
<path d="M0 0 C1.19496094 -0.00128906 2.38992187 -0.00257813 3.62109375 -0.00390625 C4.87019531 -0.00003906 6.11929688 0.00382812 7.40625 0.0078125 C8.65535156 0.00394531 9.90445313 0.00007813 11.19140625 -0.00390625 C12.98384766 -0.00197266 12.98384766 -0.00197266 14.8125 0 C15.90884766 0.00112793 17.00519531 0.00225586 18.13476562 0.00341797 C20.90625 0.1328125 20.90625 0.1328125 23.90625 1.1328125 C23.90625 1.7928125 23.90625 2.4528125 23.90625 3.1328125 C24.710625 3.4421875 25.515 3.7515625 26.34375 4.0703125 C28.90625 5.1328125 28.90625 5.1328125 29.90625 6.1328125 C31.03326252 16.63012914 31.03326252 16.63012914 27.65625 21.1328125 C26.74875 21.7928125 25.84125 22.4528125 24.90625 23.1328125 C22.62965408 24.70522796 22.62965408 24.70522796 20.90625 27.1328125 C20.58632985 29.95045788 20.47976122 32.33628776 20.59375 35.1328125 C20.60341797 35.844375 20.61308594 36.5559375 20.62304688 37.2890625 C20.69597838 40.68830495 20.86503199 43.88218065 21.90625 47.1328125 C24.76339195 47.94556092 27.31104107 48.25414447 30.27734375 48.2734375 C31.09912109 48.29277344 31.92089844 48.31210937 32.76757812 48.33203125 C34.48088392 48.36580377 36.19456649 48.38410849 37.90820312 48.38671875 C42.35141069 48.51893636 44.32606906 48.6793119 47.9296875 51.49609375 C50.28233244 54.6345035 51.14753421 56.19183702 50.90625 60.1328125 C48.24256434 64.02867928 45.52092717 66.18978581 40.90625 67.1328125 C31.76206979 67.88317417 22.30743271 68.1123201 13.90625 64.1328125 C12.90377782 63.1352908 11.90349898 62.13555597 10.90625 61.1328125 C8.13007919 60.51588565 6.56190564 60.72988756 4.1328125 62.22265625 C2.92170107 63.1041614 1.72774526 64.00986038 0.5546875 64.94140625 C-4.06275629 68.27865828 -10.04533386 67.31698116 -15.46875 67.3203125 C-16.5103125 67.33255859 -17.551875 67.34480469 -18.625 67.35742188 C-20.13707031 67.36032227 -20.13707031 67.36032227 -21.6796875 67.36328125 C-23.05713135 67.36944458 -23.05713135 67.36944458 -24.46240234 67.37573242 C-28.97882465 66.95878677 -31.44045723 65.89204464 -34.40625 62.4453125 C-36.36254719 58.60517356 -36.73543245 56.38395873 -36.09375 52.1328125 C-33.12417992 49.19350067 -30.91366644 48.76496106 -26.8125 48.76171875 C-25.30236328 48.73561523 -25.30236328 48.73561523 -23.76171875 48.70898438 C-21.64975283 48.69986985 -19.53776644 48.69466146 -17.42578125 48.69335938 C-16.41902344 48.67466797 -15.41226563 48.65597656 -14.375 48.63671875 C-13.45783203 48.63486572 -12.54066406 48.6330127 -11.59570312 48.63110352 C-8.32606365 47.97991946 -7.15642295 46.69981712 -5.09375 44.1328125 C-4.03526366 40.95735347 -3.92704122 38.59272454 -3.90625 35.2578125 C-3.89207031 34.22914063 -3.87789062 33.20046875 -3.86328125 32.140625 C-4.1040542 28.99833392 -4.61117897 26.90727018 -6.09375 24.1328125 C-7.80124736 22.75119871 -7.80124736 22.75119871 -9.71875 21.6328125 C-12.42416952 19.47525455 -13.03120784 18.46064786 -13.69140625 15 C-13.91854574 6.17118692 -13.91854574 6.17118692 -11.23828125 2.796875 C-7.57628125 -0.04467691 -4.48841718 0.00461771 0 0 Z " fill="#83C3EC" transform="translate(219.09375,259.8671875)"/>
<path d="M0 0 C4.84406905 3.15585584 8.30199908 6.38161461 10 12 C10.64620252 17.58288922 10.73885046 22.44020458 8.3125 27.5625 C3.8477911 32.26854451 -0.03809704 33.667498 -6.43359375 34.125 C-12.02320937 33.85275084 -15.63247737 31.36752263 -19.5 27.5 C-21.97233453 21.73121944 -22.38403286 15.50546028 -20.046875 9.5859375 C-15.47797699 1.8650782 -9.18431726 -2.93637142 0 0 Z " fill="#81C3EE" transform="translate(174,200)"/>
<path d="M0 0 C3.80652266 2.88061175 6.47181322 6.35763153 8.3125 10.75 C8.99362406 15.92179082 9.09925915 21.05191278 6.625 25.75 C3.05809564 30.37733539 0.1830679 31.7910896 -5.5 32.6875 C-10.75062346 33.04745332 -14.61255326 32.16769727 -18.6875 28.75 C-22.20476364 24.33851679 -23.35892937 19.56430118 -23.0703125 13.984375 C-22.14512207 8.58428393 -19.74574687 4.39888568 -15.625 0.8125 C-10.29050994 -2.93299302 -5.88542879 -2.73740874 0 0 Z " fill="#83C3EC" transform="translate(290.6875,201.25)"/>
<path d="M0 0 C3.44216672 2.6598561 3.99504674 5.90288286 5 10 C7.64 10.33 10.28 10.66 13 11 C13 10.34 13 9.68 13 9 C14.32 9 15.64 9 17 9 C16.67 7.68 16.34 6.36 16 5 C18.475 5.495 18.475 5.495 21 6 C21 6.66 21 7.32 21 8 C21.99 7.67 22.98 7.34 24 7 C29.35574758 5.73711288 34.46756634 4.70881928 40 5 C35.35960895 7.51449104 30.48704064 8.45730944 25.375 9.625 C24.42753906 9.85445313 23.48007812 10.08390625 22.50390625 10.3203125 C7.21112995 13.8349314 7.21112995 13.8349314 1.375 10.5 C-0.63041222 6.85379595 -0.27520946 4.12814187 0 0 Z " fill="#7FB9DA" transform="translate(33,316)"/>
<path d="M0 0 C0 3.92710138 -1.32524074 4.95727044 -3.8125 7.9375 C-6.77386723 11.49978593 -6.77386723 11.49978593 -9.60546875 15.1640625 C-11 17 -11 17 -13.5 19.4375 C-15.86434539 21.86095402 -17.34775545 24.07102102 -19 27 C-19.98244845 28.34631825 -20.97676564 29.68441297 -22 31 C-22.66 30.67 -23.32 30.34 -24 30 C-20.27292407 23.65252256 -16.196641 17.79065063 -11.4375 12.1875 C-10.99108154 11.6613208 -10.54466309 11.1351416 -10.0847168 10.59301758 C-6.88508523 6.88802746 -3.49187708 3.4303462 0 0 Z " fill="#E7F9FE" transform="translate(126,149)"/>
<path d="M0 0 C3.20825562 -0.05849554 6.41637233 -0.09376162 9.625 -0.125 C10.52863281 -0.14175781 11.43226562 -0.15851563 12.36328125 -0.17578125 C18.06900518 -0.21742887 22.91070737 0.043448 27.875 3.1875 C29.68721946 6.10718691 29.29838809 8.65805342 29 12 C28.01 13.485 28.01 13.485 27 15 C26.34 15 25.68 15 25 15 C25.66 11.7 26.32 8.4 27 5 C26.34 5 25.68 5 25 5 C24.67 4.34 24.34 3.68 24 3 C22.85402344 2.93941406 21.70804688 2.87882812 20.52734375 2.81640625 C18.99738703 2.73193011 17.46743959 2.64728573 15.9375 2.5625 C15.18533203 2.52318359 14.43316406 2.48386719 13.65820312 2.44335938 C9.05301259 2.18419281 4.55633276 1.7200579 0 1 C0 0.67 0 0.34 0 0 Z " fill="#8AC0DC" transform="translate(104,265)"/>
<path d="M0 0 C4.41301958 6.61952937 6.21034653 12.34135869 5.5625 20.1875 C5.46066406 21.45980469 5.35882813 22.73210937 5.25390625 24.04296875 C5.17011719 25.01878906 5.08632812 25.99460938 5 27 C4.01 27.33 3.02 27.66 2 28 C2 28.66 2 29.32 2 30 C1.34 30 0.68 30 0 30 C0.309375 29.319375 0.61875 28.63875 0.9375 27.9375 C3.48098682 20.90550703 2.75059886 15.99195396 0.69140625 8.96484375 C-0.02873366 5.87678616 -0.11735596 3.15922255 0 0 Z " fill="#88C2E3" transform="translate(79,146)"/>
<path d="M0 0 C1.15846436 -0.03867187 1.15846436 -0.03867187 2.34033203 -0.078125 C5.05603881 0.33597869 6.43880375 1.47712678 8.4921875 3.25 C8.1621875 3.91 7.8321875 4.57 7.4921875 5.25 C6.8321875 4.59 6.1721875 3.93 5.4921875 3.25 C3.32912401 2.93981017 3.32912401 2.93981017 0.84375 2.984375 C-0.07921875 2.98179687 -1.0021875 2.97921875 -1.953125 2.9765625 C-2.91992188 2.98429687 -3.88671875 2.99203125 -4.8828125 3 C-5.841875 2.99226563 -6.8009375 2.98453125 -7.7890625 2.9765625 C-9.17738281 2.98042969 -9.17738281 2.98042969 -10.59375 2.984375 C-11.4398584 2.98663086 -12.2859668 2.98888672 -13.15771484 2.99121094 C-15.69515944 3.27063035 -17.28185108 4.0466166 -19.5078125 5.25 C-22.34097296 5.31307593 -24.6925266 4.80382674 -27.5078125 4.25 C-27.8378125 3.59 -28.1678125 2.93 -28.5078125 2.25 C-24.88347262 1.90922686 -21.25825859 1.5787782 -17.6328125 1.25 C-16.61960937 1.15460938 -15.60640625 1.05921875 -14.5625 0.9609375 C-9.71404127 0.52581941 -4.86637105 0.15011942 0 0 Z " fill="#85BBD7" transform="translate(420.5078125,258.75)"/>
<path d="M0 0 C1.53720703 0.01450195 1.53720703 0.01450195 3.10546875 0.02929688 C4.70068359 0.06700195 4.70068359 0.06700195 6.328125 0.10546875 C7.94654297 0.12577148 7.94654297 0.12577148 9.59765625 0.14648438 C12.2583192 0.18180291 14.91796796 0.23112676 17.578125 0.29296875 C17.248125 0.95296875 16.918125 1.61296875 16.578125 2.29296875 C9.318125 2.29296875 2.058125 2.29296875 -5.421875 2.29296875 C-5.421875 6.25296875 -5.421875 10.21296875 -5.421875 14.29296875 C-9.421875 10.29296875 -9.421875 10.29296875 -9.921875 6.73046875 C-9.421875 3.29296875 -9.421875 3.29296875 -7.72949219 1.59643555 C-4.92839887 0.01422678 -3.20247747 -0.05337462 0 0 Z " fill="#9EC8E4" transform="translate(192.421875,308.70703125)"/>
<path d="M0 0 C0.99 0.33 1.98 0.66 3 1 C5.35680213 1.08397157 7.71594081 1.10728187 10.07421875 1.09765625 C10.7580513 1.0962413 11.44188385 1.09482635 12.1464386 1.09336853 C14.32683722 1.08777876 16.50713251 1.07522822 18.6875 1.0625 C20.16731622 1.05748367 21.64713406 1.052921 23.12695312 1.04882812 C26.75133557 1.03781271 30.3756577 1.02055512 34 1 C33.27758802 5.11704694 31.97646289 8.30487372 30 12 C29.67 12 29.34 12 29 12 C29 10.35 29 8.7 29 7 C29.66 7 30.32 7 31 7 C31 5.68 31 4.36 31 3 C30.13197754 3.00523682 29.26395508 3.01047363 28.36962891 3.01586914 C25.15299727 3.03289862 21.93638859 3.04544408 18.71972656 3.05493164 C17.32681523 3.0599643 15.9339092 3.06679098 14.54101562 3.07543945 C12.54038754 3.08755152 10.53972112 3.09270412 8.5390625 3.09765625 C7.33459473 3.10289307 6.13012695 3.10812988 4.88916016 3.11352539 C2 3 2 3 0 2 C0 1.34 0 0.68 0 0 Z " fill="#E8FCFE" transform="translate(323,280)"/>
<path d="M0 0 C0 4.03945629 -0.31171366 6.95380476 -2.5625 10.375 C-4.87876424 14.60469991 -4.4730134 18.32626027 -3.1875 22.875 C-2.12779105 25.33178312 -2.12779105 25.33178312 1 26 C1 26.66 1 27.32 1 28 C-2.87356508 26.53071669 -4.16458579 24.66054598 -6 21 C-6.99401584 14.99448762 -6.8256723 9.55249263 -3.5625 4.3125 C-2.44036823 2.76836996 -1.34778207 1.34778207 0 0 Z " fill="#8CC1E3" transform="translate(159,203)"/>
<path d="M0 0 C0 0.66 0 1.32 0 2 C-0.59014893 1.98428955 -1.18029785 1.9685791 -1.78833008 1.95239258 C-4.46295586 1.89002061 -7.13742864 1.85100343 -9.8125 1.8125 C-11.2056543 1.77479492 -11.2056543 1.77479492 -12.62695312 1.73632812 C-13.51962891 1.72666016 -14.41230469 1.71699219 -15.33203125 1.70703125 C-16.56530151 1.68346558 -16.56530151 1.68346558 -17.82348633 1.65942383 C-20.54705535 2.08560204 -21.38651276 2.7921198 -23 5 C-23.73041853 8.61023099 -23.73041853 8.61023099 -24 12 C-26 9 -26 9 -25.9375 6.0625 C-25 3 -25 3 -23.0625 0.625 C-16.23312414 -2.99875045 -7.43093586 -0.8853881 0 0 Z " fill="#86BCD8" transform="translate(46,260)"/>
<path d="M0 0 C0.33 2.64 0.66 5.28 1 8 C-0.65 8.33 -2.3 8.66 -4 9 C-4.33 8.34 -4.66 7.68 -5 7 C-4.67 6.34 -4.34 5.68 -4 5 C-6.15825637 5.96749423 -7.7900609 6.78093311 -9.4375 8.5 C-11.4156595 10.39903312 -13.43558782 11.09899031 -16 12 C-4.72727273 0 -4.72727273 0 0 0 Z " fill="#8BC5E7" transform="translate(352,38)"/>
<path d="M0 0 C1.11503906 0.00966797 2.23007812 0.01933594 3.37890625 0.02929688 C5.11720703 0.06700195 5.11720703 0.06700195 6.890625 0.10546875 C8.65212891 0.12577148 8.65212891 0.12577148 10.44921875 0.14648438 C13.34681798 0.18182095 16.24348927 0.23115896 19.140625 0.29296875 C19.140625 0.62296875 19.140625 0.95296875 19.140625 1.29296875 C6.765625 2.28296875 6.765625 2.28296875 -5.859375 3.29296875 C-6.519375 4.94296875 -7.179375 6.59296875 -7.859375 8.29296875 C-8.849375 7.96296875 -9.839375 7.63296875 -10.859375 7.29296875 C-10.50071192 4.69266143 -10.09392068 3.51882629 -8.17871094 1.67456055 C-5.25229214 -0.06866093 -3.39112862 -0.05190503 0 0 Z " fill="#84BBDC" transform="translate(331.859375,264.70703125)"/>
<path d="M0 0 C0.495 1.485 0.495 1.485 1 3 C-1.03001424 5.03001424 -5.10603677 4.39611477 -7.90234375 4.53515625 C-8.69524307 4.57813339 -9.4881424 4.62111053 -10.30506897 4.66539001 C-12.84900042 4.80215548 -15.39322362 4.93232549 -17.9375 5.0625 C-19.65041296 5.15387908 -21.36330398 5.24567062 -23.07617188 5.33789062 C-35.49055101 6 -35.49055101 6 -38 6 C-38 5.34 -38 4.68 -38 4 C-36.95545654 3.9498877 -35.91091309 3.89977539 -34.8347168 3.84814453 C-30.95970513 3.65981101 -27.08539511 3.4594168 -23.21118164 3.25537109 C-21.53426526 3.16874312 -19.8571765 3.08538764 -18.17993164 3.00537109 C-15.76916552 2.8897913 -13.35926425 2.76245865 -10.94921875 2.6328125 C-9.82407112 2.58267502 -9.82407112 2.58267502 -8.67619324 2.53152466 C-4.9830544 2.32121631 -3.14602547 2.09735031 0 0 Z " fill="#D7F6FD" transform="translate(362,260)"/>
<path d="M0 0 C0 0.33 0 0.66 0 1 C-0.92232422 1.09087891 -0.92232422 1.09087891 -1.86328125 1.18359375 C-2.67152344 1.26738281 -3.47976563 1.35117188 -4.3125 1.4375 C-5.11300781 1.51871094 -5.91351563 1.59992188 -6.73828125 1.68359375 C-9.16087179 1.95265693 -9.16087179 1.95265693 -12 3 C-12.73323796 5.01508358 -12.73323796 5.01508358 -13 7 C-13.99 7 -14.98 7 -16 7 C-17.57077907 12.02649303 -18.44854729 16.76119922 -19 22 C-19.33 22 -19.66 22 -20 22 C-20.54924936 15.40900769 -19.89577162 10.46837668 -16 5 C-10.89784008 -0.36859125 -7.22275418 -1.22650543 0 0 Z " fill="#92C2DF" transform="translate(288,200)"/>
<path d="M0 0 C0.33 0 0.66 0 1 0 C1.4247346 4.3322929 1.47048413 6.34962488 -1.125 9.9375 C-4.43148796 12.30954571 -6.0239197 12.46233492 -10 12 C-7.8614515 9.8614515 -6.86724686 9.57344937 -4 9 C-4.33 6.69 -4.66 4.38 -5 2 C-3.35 2.33 -1.7 2.66 0 3 C0 2.01 0 1.02 0 0 Z " fill="#80BDE1" transform="translate(429,264)"/>
<path d="M0 0 C1.0625 1.8125 1.0625 1.8125 2 4 C1.67 4.99 1.34 5.98 1 7 C1.0055748 8.75048708 1.05171949 10.50103857 1.125 12.25 C1.19251067 17.33355315 0.37823971 20.54080054 -2 25 C-2.33 25 -2.66 25 -3 25 C-2.88481642 22.33259077 -2.75810454 19.66652759 -2.625 17 C-2.5940625 16.25621094 -2.563125 15.51242188 -2.53125 14.74609375 C-2.26246207 9.59432517 -1.38936116 4.97007244 0 0 Z " fill="#81BBDA" transform="translate(67,210)"/>
<path d="M0 0 C0.99 0.66 1.98 1.32 3 2 C1.741875 2.020625 0.48375 2.04125 -0.8125 2.0625 C-1.52019531 2.07410156 -2.22789062 2.08570313 -2.95703125 2.09765625 C-5 2 -5 2 -8 1 C-8.12375 1.639375 -8.2475 2.27875 -8.375 2.9375 C-8.58125 3.618125 -8.7875 4.29875 -9 5 C-9.99 5.495 -9.99 5.495 -11 6 C-10.67 8.64 -10.34 11.28 -10 14 C-10.66 14 -11.32 14 -12 14 C-13.67059759 11.44496838 -14.0040057 10.0961367 -13.875 7 C-11.73849437 -0.32516215 -6.92863881 -1.09735348 0 0 Z " fill="#8ABFDD" transform="translate(328,289)"/>
<path d="M0 0 C0 0.66 0 1.32 0 2 C-5.08940744 4.05362055 -9.54520815 5.43179252 -15 6 C-15 7.65 -15 9.3 -15 11 C-15.66 10.67 -16.32 10.34 -17 10 C-17 9.34 -17 8.68 -17 8 C-17.99 7.67 -18.98 7.34 -20 7 C-20 6.34 -20 5.68 -20 5 C-17.04283593 4.16247839 -14.084087 3.33069969 -11.125 2.5 C-10.28324219 2.26152344 -9.44148438 2.02304687 -8.57421875 1.77734375 C-7.76855469 1.55175781 -6.96289062 1.32617188 -6.1328125 1.09375 C-5.01737061 0.77954102 -5.01737061 0.77954102 -3.87939453 0.45898438 C-2 0 -2 0 0 0 Z " fill="#E5FBFE" transform="translate(133,305)"/>
<path d="M0 0 C2.93652657 2.07900099 5.48233949 4.43546815 8 7 C7.67 7.99 7.34 8.98 7 10 C6.34 9.01 5.68 8.02 5 7 C2.94996045 5.80767387 2.94996045 5.80767387 1 5 C1 4.01 1 3.02 1 2 C-3.29 2 -7.58 2 -12 2 C-9.76115492 -2.47769015 -4.08922477 -1.3389497 0 0 Z " fill="#96C4E4" transform="translate(174,200)"/>
<path d="M0 0 C0.99 0 1.98 0 3 0 C3.11667875 3.22886009 3.18740546 6.45717445 3.25 9.6875 C3.28351563 10.59951172 3.31703125 11.51152344 3.3515625 12.45117188 C3.45112665 19.29620745 3.45112665 19.29620745 0.984375 23.14453125 C0.32953125 23.75683594 -0.3253125 24.36914062 -1 25 C-1.99 24.67 -2.98 24.34 -4 24 C-3.360625 23.401875 -2.72125 22.80375 -2.0625 22.1875 C1.22841737 18.69713309 1.13648814 15.73174288 1.125 11.125 C1.12886719 9.58199219 1.12886719 9.58199219 1.1328125 8.0078125 C1.00995061 5.225352 0.62944236 2.70760126 0 0 Z " fill="#92C2DF" transform="translate(214,284)"/>
<path d="M0 0 C-4.29 3.63 -8.58 7.26 -13 11 C-13.33 9.68 -13.66 8.36 -14 7 C-10.375 4 -10.375 4 -7 4 C-7 2.68 -7 1.36 -7 0 C-3.98968256 -0.93423645 -3.13349732 -1.04449911 0 0 Z " fill="#8EC3E2" transform="translate(138,140)"/>
<path d="M0 0 C3.88397689 1.55002747 6.02979619 4.00476621 8.75 7.125 C9.94882813 8.49011719 9.94882813 8.49011719 11.171875 9.8828125 C12.07679688 10.93082031 12.07679688 10.93082031 13 12 C12.67 12.66 12.34 13.32 12 14 C11.443125 13.525625 10.88625 13.05125 10.3125 12.5625 C7.81653926 10.87604004 5.9553763 10.41046893 3 10 C3.66 8.68 4.32 7.36 5 6 C4.175 5.38125 3.35 4.7625 2.5 4.125 C1.675 3.42375 0.85 2.7225 0 2 C0 1.34 0 0.68 0 0 Z " fill="#89C0DF" transform="translate(150,81)"/>
<path d="M0 0 C4.21526759 -0.33722141 6.57789269 -0.21887045 10.375 1.75 C13 4 13 4 13.875 6.25 C13.936875 7.11625 13.936875 7.11625 14 8 C13.34 8 12.68 8 12 8 C11.67 7.34 11.34 6.68 11 6 C8.67843403 5.59270772 6.3431213 5.25561323 4 5 C4.33 4.01 4.66 3.02 5 2 C3.35 1.67 1.7 1.34 0 1 C0 0.67 0 0.34 0 0 Z " fill="#8DC5EA" transform="translate(362,32)"/>
<path d="M0 0 C-3.21907475 1.07302492 -3.80760199 0.95483207 -6.875 0 C-10.30390048 -0.90894071 -12.60769848 -1.37525737 -16 0 C-18.79245093 2.45817955 -18.79245093 2.45817955 -21 5 C-21 4.01 -21 3.02 -21 2 C-20.34 2 -19.68 2 -19 2 C-18.67 0.35 -18.34 -1.3 -18 -3 C-10.88929109 -4.58015754 -6.50071131 -3.10382323 0 0 Z " fill="#82B9D7" transform="translate(378,320)"/>
<path d="M0 0 C1.32 0 2.64 0 4 0 C4.25394531 0.80824219 4.50789063 1.61648438 4.76953125 2.44921875 C5.11371094 3.51785156 5.45789063 4.58648437 5.8125 5.6875 C6.14894531 6.74324219 6.48539062 7.79898437 6.83203125 8.88671875 C7.88444075 12.02427349 7.88444075 12.02427349 9.69921875 14.64453125 C11 17 11 17 10.6875 19.3125 C10.460625 19.869375 10.23375 20.42625 10 21 C8.84727636 18.60727078 7.70271155 16.21118379 6.5625 13.8125 C6.23701172 13.13896484 5.91152344 12.46542969 5.57617188 11.77148438 C3.86290305 8.1506585 2.76591951 4.94857535 2 1 C1.34 0.67 0.68 0.34 0 0 Z " fill="#86BCD9" transform="translate(70,280)"/>
<path d="M0 0 C0.99 0.33 1.98 0.66 3 1 C3.66015625 2.99609375 3.66015625 2.99609375 4.0625 5.4375 C4.63171515 9.14163657 4.63171515 9.14163657 7 12 C6.34 12.66 5.68 13.32 5 14 C3.82786955 12.21190303 2.66244474 10.41940875 1.5 8.625 C0.8503125 7.62726563 0.200625 6.62953125 -0.46875 5.6015625 C-2 3 -2 3 -2 1 C-1.34 0.67 -0.68 0.34 0 0 Z " fill="#88C0E2" transform="translate(347,169)"/>
<path d="M0 0 C-0.33 0.66 -0.66 1.32 -1 2 C-6.20051239 3.19419173 -11.22575151 3.70540748 -16 1 C-16 0.67 -16 0.34 -16 0 C-10.49983036 -1.30267176 -5.52967941 -0.71033431 0 0 Z " fill="#8CC3E4" transform="translate(176,231)"/>
<path d="M0 0 C11.92490746 1.300899 11.92490746 1.300899 17 3 C17.33 3.66 17.66 4.32 18 5 C17.16855469 4.91621094 16.33710938 4.83242188 15.48046875 4.74609375 C13.85044922 4.59333984 13.85044922 4.59333984 12.1875 4.4375 C11.10855469 4.33308594 10.02960938 4.22867187 8.91796875 4.12109375 C5.93517546 3.82422391 5.93517546 3.82422391 3 5 C2.67 4.01 2.34 3.02 2 2 C1.34 2 0.68 2 0 2 C0 1.34 0 0.68 0 0 Z " fill="#80BBDD" transform="translate(391,307)"/>
<path d="M0 0 C1.55053541 4.65160624 1.82489894 9.93775265 0 14.5 C-0.33 14.995 -0.66 15.49 -1 16 C-1.99 16 -2.98 16 -4 16 C-2.98408579 10.53135543 -1.92908943 5.23609987 0 0 Z " fill="#85BFDE" transform="translate(71,193)"/>
<path d="M0 0 C1.5625 1.125 1.5625 1.125 3 3 C2.92568929 6.49260339 2.3867931 8.44956367 0.375 11.3125 C-2.69979407 13.4972221 -5.28479387 13.71421491 -9 14 C-8.34 13.67 -7.68 13.34 -7 13 C-6.67 12.34 -6.34 11.68 -6 11 C-5.01 11.33 -4.02 11.66 -3 12 C-3 11.34 -3 10.68 -3 10 C-2.01 9.34 -1.02 8.68 0 8 C0.36297936 6.02252878 0.36297936 6.02252878 0.1875 3.875 C0.125625 2.59625 0.06375 1.3175 0 0 Z " fill="#89C0DA" transform="translate(136,292)"/>
<path d="M0 0 C2.87325653 1.37159571 4.84212721 2.64595696 7 5 C7.66 5.66 8.32 6.32 9 7 C9.99 6.67 10.98 6.34 12 6 C12 7.98 12 9.96 12 12 C6.58627581 8.90644332 3.50222763 5.11672973 0 0 Z " fill="#86BFDD" transform="translate(100,330)"/>
<path d="M0 0 C0.99 0.33 1.98 0.66 3 1 C-5.23529412 7.09411765 -5.23529412 7.09411765 -10 9 C-12.17578125 8.5703125 -12.17578125 8.5703125 -14 8 C-13.24074219 7.59007812 -12.48148437 7.18015625 -11.69921875 6.7578125 C-10.70535156 6.21898437 -9.71148437 5.68015625 -8.6875 5.125 C-7.20830078 4.32449219 -7.20830078 4.32449219 -5.69921875 3.5078125 C-2.90413542 1.99277874 -2.90413542 1.99277874 0 0 Z " fill="#89C2DF" transform="translate(310,338)"/>
<path d="M0 0 C0.66 0.33 1.32 0.66 2 1 C-1.82994427 5.99435956 -5.27652452 9.30024742 -11 12 C-11.99 12 -12.98 12 -14 12 C-9.38 8.04 -4.76 4.08 0 0 Z " fill="#83BEDC" transform="translate(327,324)"/>
<path d="M0 0 C0 0.66 0 1.32 0 2 C-1.32 2.33 -2.64 2.66 -4 3 C-3.67 4.32 -3.34 5.64 -3 7 C-3.99 7.33 -4.98 7.66 -6 8 C-7.125 5.6875 -7.125 5.6875 -8 3 C-5.45189726 -0.82215411 -4.39145359 -1.46381786 0 0 Z " fill="#78BDE3" transform="translate(320,354)"/>
<path d="M0 0 C-1.15628906 0.30744141 -1.15628906 0.30744141 -2.3359375 0.62109375 C-3.33882812 0.89050781 -4.34171875 1.15992187 -5.375 1.4375 C-6.37273437 1.70433594 -7.37046875 1.97117187 -8.3984375 2.24609375 C-10.95417701 2.90184356 -10.95417701 2.90184356 -13 4 C-15.00800456 3.71887936 -17.01014051 3.38932033 -19 3 C-19 2.67 -19 2.34 -19 2 C-16.58525383 1.46839543 -14.16891893 0.94945234 -11.75 0.4375 C-11.06808594 0.28603516 -10.38617188 0.13457031 -9.68359375 -0.02148438 C-6.18230962 -0.75233495 -3.39701827 -1.32203546 0 0 Z " fill="#E0F5FC" transform="translate(206,113)"/>
<path d="M0 0 C0 0.66 0 1.32 0 2 C2.64 2 5.28 2 8 2 C8 2.33 8 2.66 8 3 C1.64012196 3.20190089 -3.85221129 2.6277833 -10 1 C-10 0.67 -10 0.34 -10 0 C-6.30458414 -0.95024979 -3.69541586 -0.95024979 0 0 Z " fill="#80BADA" transform="translate(405,325)"/>
<path d="M0 0 C2.64 0 5.28 0 8 0 C7.39301257 4.12751449 5.96189209 7.3321148 4 11 C3.67 11 3.34 11 3 11 C3 9.35 3 7.7 3 6 C3.66 6 4.32 6 5 6 C4.80528889 4.05000871 4.80528889 4.05000871 4 2 C2.0162233 0.71563266 2.0162233 0.71563266 0 0 Z " fill="#D8F6FD" transform="translate(349,281)"/>
<path d="M0 0 C1 3 1 3 -0.4375 6 C-0.953125 6.99 -1.46875 7.98 -2 9 C-2 9.99 -2 10.98 -2 12 C-0.68 12.66 0.64 13.32 2 14 C0.33388095 14.042721 -1.33382885 14.04063832 -3 14 C-3.33 13.67 -3.66 13.34 -4 13 C-3.95969788 8.03276399 -3.65587458 3.65587458 0 0 Z " fill="#83B8D3" transform="translate(376,290)"/>
<path d="M0 0 C0.99 0.33 1.98 0.66 3 1 C3 1.66 3 2.32 3 3 C9.27 3.33 15.54 3.66 22 4 C22 4.33 22 4.66 22 5 C19.08277452 5.08103404 16.16780484 5.14051081 13.25 5.1875 C12.0125 5.22520508 12.0125 5.22520508 10.75 5.26367188 C4.62789172 5.33772964 4.62789172 5.33772964 1.421875 3.61328125 C0 2 0 2 0 0 Z " fill="#84BAD7" transform="translate(322,277)"/>
<path d="M0 0 C2.97 0.33 5.94 0.66 9 1 C9 1.66 9 2.32 9 3 C3.91913204 3.84681133 -0.84828377 4.09038099 -6 4 C-6 3.67 -6 3.34 -6 3 C-3.69 3 -1.38 3 1 3 C0.67 2.01 0.34 1.02 0 0 Z " fill="#7CBBDA" transform="translate(409,274)"/>
<path d="M0 0 C0.33 0 0.66 0 1 0 C1.738041 12.66970387 1.738041 12.66970387 -3 18 C-3.33 16.68 -3.66 15.36 -4 14 C-3.34 14 -2.68 14 -2 14 C-1.34 9.38 -0.68 4.76 0 0 Z " fill="#93C3E3" transform="translate(183,212)"/>
<path d="M0 0 C3.05001831 3.66002197 7 9.07851471 7 14 C6.01 13.67 5.02 13.34 4 13 C4 12.34 4 11.68 4 11 C3.34 10.67 2.68 10.34 2 10 C0.55487596 6.3871899 0 3.93312158 0 0 Z " fill="#7DB9D7" transform="translate(369,168)"/>
<path d="M0 0 C2.79827632 1.11833382 5.39726245 2.48567997 8 4 C8 4.33 8 4.66 8 5 C6.35 5 4.7 5 3 5 C3 4.34 3 3.68 3 3 C2.38511719 2.93941406 1.77023438 2.87882812 1.13671875 2.81640625 C0.32847656 2.73261719 -0.47976562 2.64882813 -1.3125 2.5625 C-2.11300781 2.48128906 -2.91351563 2.40007813 -3.73828125 2.31640625 C-6 2 -6 2 -9 1 C-5.87143524 -0.56428238 -3.47287869 -0.28007086 0 0 Z " fill="#8ABDDE" transform="translate(91,32)"/>
<path d="M0 0 C0.99 0 1.98 0 3 0 C3.36923077 5.53846154 3.36923077 5.53846154 1.5 7.875 C0.7575 8.431875 0.7575 8.431875 0 9 C-1.10844919 5.67465243 -0.84454356 3.37817425 0 0 Z " fill="#78BEE2" transform="translate(354,320)"/>
<path d="M0 0 C0.33 0.99 0.66 1.98 1 3 C0 4 0 4 -1.85766602 4.11352539 C-2.64842529 4.10828857 -3.43918457 4.10305176 -4.25390625 4.09765625 C-5.10791016 4.09443359 -5.96191406 4.09121094 -6.84179688 4.08789062 C-7.73962891 4.07951172 -8.63746094 4.07113281 -9.5625 4.0625 C-10.46419922 4.05798828 -11.36589844 4.05347656 -12.29492188 4.04882812 C-14.53001314 4.03700225 -16.76497437 4.0205222 -19 4 C-19 3.67 -19 3.34 -19 3 C-17.31970703 2.92652344 -17.31970703 2.92652344 -15.60546875 2.8515625 C-14.13278797 2.77652144 -12.66013293 2.70097418 -11.1875 2.625 C-10.44951172 2.5940625 -9.71152344 2.563125 -8.95117188 2.53125 C-5.18106885 2.32653852 -3.20349259 2.13566173 0 0 Z " fill="#E8FBFF" transform="translate(362,260)"/>
<path d="M0 0 C0.33 0 0.66 0 1 0 C1.04898438 0.59167969 1.09796875 1.18335938 1.1484375 1.79296875 C1.696027 8.13120946 1.696027 8.13120946 4 14 C4.99 14.33 5.98 14.66 7 15 C7 15.66 7 16.32 7 17 C4.45436943 16.03441599 3.05364796 15.06131195 1.25 13 C-0.55131741 8.67683821 -0.24227996 4.62126599 0 0 Z " fill="#90BED9" transform="translate(153,214)"/>
<path d="M0 0 C1.4589426 0.47730838 2.91713496 0.95691042 4.375 1.4375 C5.18710938 1.70433594 5.99921875 1.97117187 6.8359375 2.24609375 C9 3 9 3 11 4 C11 4.66 11 5.32 11 6 C11.99 6.33 12.98 6.66 14 7 C13.01 7.495 13.01 7.495 12 8 C9.43359375 6.85546875 9.43359375 6.85546875 6.4375 5.1875 C4.95056641 4.37345703 4.95056641 4.37345703 3.43359375 3.54296875 C1 2 1 2 0 0 Z " fill="#86BBD8" transform="translate(137,360)"/>
<path d="M0 0 C2.97 0.495 2.97 0.495 6 1 C5.67 1.66 5.34 2.32 5 3 C5.60578253 5.01927511 6.26919734 7.02253397 7 9 C4.03595495 6.19195732 1.55500981 3.81684226 0 0 Z " fill="#84BDDB" transform="translate(93,321)"/>
<path d="M0 0 C2 2 2 2 2.08203125 3.875 C1.99308594 4.57625 1.90414063 5.2775 1.8125 6 C1.69841797 7.051875 1.69841797 7.051875 1.58203125 8.125 C1 10 1 10 -2 12 C-1.608125 10.741875 -1.21625 9.48375 -0.8125 8.1875 C-0.21024019 6.03515306 -0.21024019 6.03515306 0 4 C-1.2106557 1.94995161 -1.2106557 1.94995161 -3 1 C-2.01 0.67 -1.02 0.34 0 0 Z " fill="#82BAD5" transform="translate(417,315)"/>
<path d="M0 0 C0.99 0 1.98 0 3 0 C2.70703125 1.98567708 2.4140625 3.97135417 2.12109375 5.95703125 C1.86095201 8.2025342 1.86095201 8.2025342 3 11 C1.68 10.67 0.36 10.34 -1 10 C-1.02689216 8.52093108 -1.04634621 7.04172517 -1.0625 5.5625 C-1.07410156 4.73878906 -1.08570313 3.91507812 -1.09765625 3.06640625 C-1 1 -1 1 0 0 Z " fill="#E6F9FD" transform="translate(313,291)"/>
<path d="M0 0 C0.99 0.33 1.98 0.66 3 1 C3 6.61 3 12.22 3 18 C2.34 18 1.68 18 1 18 C1.01160156 17.03578125 1.02320313 16.0715625 1.03515625 15.078125 C1.04417969 13.81484375 1.05320313 12.5515625 1.0625 11.25 C1.07990234 9.37054688 1.07990234 9.37054688 1.09765625 7.453125 C1.02021027 4.71463499 0.82780815 2.58119707 0 0 Z " fill="#E1F7FD" transform="translate(182,208)"/>
<path d="M0 0 C4.97306516 0.49730652 8.63799813 1.55302334 13 4 C13 4.66 13 5.32 13 6 C3.40546697 3.10933941 3.40546697 3.10933941 0 0 Z " fill="#E4F9FE" transform="translate(159,347)"/>
<path d="M0 0 C6.52307692 -0.36923077 6.52307692 -0.36923077 8.9375 1.5 C9.288125 1.995 9.63875 2.49 10 3 C2.25 3.125 2.25 3.125 0 2 C0 1.34 0 0.68 0 0 Z " fill="#83BCDB" transform="translate(126,289)"/>
<path d="M0 0 C0.33 1.32 0.66 2.64 1 4 C-0.4800841 3.88637738 -1.95910074 3.75877092 -3.4375 3.625 C-4.26121094 3.55539062 -5.08492187 3.48578125 -5.93359375 3.4140625 C-6.61550781 3.27742188 -7.29742187 3.14078125 -8 3 C-8.33 2.34 -8.66 1.68 -9 1 C-2.25 0 -2.25 0 0 0 Z " fill="#7EBADC" transform="translate(186,376)"/>
<path d="M0 0 C0.66 0.33 1.32 0.66 2 1 C-2.455 4.465 -2.455 4.465 -7 8 C-7 7.01 -7 6.02 -7 5 C-6.34 5 -5.68 5 -5 5 C-5 4.01 -5 3.02 -5 2 C-2.625 0.9375 -2.625 0.9375 0 0 Z " fill="#83BAD9" transform="translate(334,346)"/>
<path d="M0 0 C-2.17424117 2.50037734 -3.73045798 3.43628586 -7 4 C-7 3.34 -7 2.68 -7 2 C-7.99 1.67 -8.98 1.34 -10 1 C-3.71428571 -1.42857143 -3.71428571 -1.42857143 0 0 Z " fill="#81BDE1" transform="translate(119,293)"/>
<path d="M0 0 C0.66 0.33 1.32 0.66 2 1 C0.68 4.3 -0.64 7.6 -2 11 C-2.66 11 -3.32 11 -4 11 C-3.39301257 6.87248551 -1.96189209 3.6678852 0 0 Z " fill="#84BBD9" transform="translate(357,282)"/>
<path d="M0 0 C2.31 0.33 4.62 0.66 7 1 C7 1.33 7 1.66 7 2 C4.69 2.33 2.38 2.66 0 3 C-0.33 4.65 -0.66 6.3 -1 8 C-3 5 -3 5 -3 3 C-2.34 3 -1.68 3 -1 3 C-0.67 2.01 -0.34 1.02 0 0 Z " fill="#80B8D8" transform="translate(381,278)"/>
<path d="M0 0 C1.32 0.33 2.64 0.66 4 1 C3.071875 1.7425 2.14375 2.485 1.1875 3.25 C-1.27126958 5.29025561 -3.21647549 7.32471323 -5 10 C-4.49701212 5.59885603 -2.91227269 3.28804981 0 0 Z " fill="#E1F7FD" transform="translate(159,200)"/>
<path d="M0 0 C-2.97 2.475 -2.97 2.475 -6 5 C-7.32 4.34 -8.64 3.68 -10 3 C-3.375 -1.125 -3.375 -1.125 0 0 Z " fill="#8EC0E1" transform="translate(362,34)"/>
<path d="M0 0 C7.75 0.875 7.75 0.875 10 2 C10 2.99 10 3.98 10 5 C6.08788267 3.84414715 3.1254959 2.64465038 0 0 Z " fill="#95C4E1" transform="translate(285,122)"/>
<path d="M0 0 C0.66 0 1.32 0 2 0 C3.42258812 3.82320557 4.24042276 6.91281305 4 11 C1.35534962 7.8745041 0.15585285 4.91211733 -1 1 C-0.67 0.67 -0.34 0.34 0 0 Z " fill="#83BDDB" transform="translate(354,183)"/>
<path d="M0 0 C0.66 0.33 1.32 0.66 2 1 C-1.63 3.31 -5.26 5.62 -9 8 C-8 4 -8 4 -6.22265625 2.69921875 C-5.50980469 2.36535156 -4.79695312 2.03148437 -4.0625 1.6875 C-3.35222656 1.34074219 -2.64195312 0.99398437 -1.91015625 0.63671875 C-1.27980469 0.42660156 -0.64945313 0.21648437 0 0 Z " fill="#92C2DF" transform="translate(149,130)"/>
<path d="M0 0 C0.33 0 0.66 0 1 0 C1.3125 2.3125 1.3125 2.3125 1 5 C-1.375 6.875 -1.375 6.875 -4 8 C-4.66 7.67 -5.32 7.34 -6 7 C-5.02433888 5.83040013 -4.044375 4.66438823 -3.0625 3.5 C-2.51722656 2.8503125 -1.97195313 2.200625 -1.41015625 1.53125 C-0.71212891 0.77328125 -0.71212891 0.77328125 0 0 Z " fill="#8FC2DF" transform="translate(292,91)"/>
<path d="M0 0 C-0.99 0.495 -0.99 0.495 -2 1 C-2 2.65 -2 4.3 -2 6 C-2.66 5.67 -3.32 5.34 -4 5 C-4 4.34 -4 3.68 -4 3 C-4.99 2.67 -5.98 2.34 -7 2 C-7 1.34 -7 0.68 -7 0 C-3.86650268 -1.04449911 -3.01031744 -0.93423645 0 0 Z " fill="#D7F3FB" transform="translate(120,310)"/>
<path d="M0 0 C0.66 0.33 1.32 0.66 2 1 C1.01 2.485 1.01 2.485 0 4 C-0.66 4 -1.32 4 -2 4 C-2.33 4.99 -2.66 5.98 -3 7 C-4.32 6.67 -5.64 6.34 -7 6 C-4.69 4.02 -2.38 2.04 0 0 Z " fill="#E5F9FE" transform="translate(134,142)"/>
<path d="M0 0 C0.33 0.66 0.66 1.32 1 2 C-3.30769231 5.07692308 -3.30769231 5.07692308 -6.8125 4.6875 C-7.534375 4.460625 -8.25625 4.23375 -9 4 C-6.3144406 1.3144406 -3.62378672 0.93950026 0 0 Z " fill="#89C1E2" transform="translate(276,355)"/>
<path d="M0 0 C0.66 0 1.32 0 2 0 C1.32829194 3.8063457 0.27253436 7.35206816 -1 11 C-1.33 11 -1.66 11 -2 11 C-1.85892253 9.54119891 -1.71197585 8.08296449 -1.5625 6.625 C-1.48128906 5.81289062 -1.40007812 5.00078125 -1.31640625 4.1640625 C-1 2 -1 2 0 0 Z " fill="#82BEDC" transform="translate(93,192)"/>
<path d="M0 0 C0.66 0.33 1.32 0.66 2 1 C1.67 2.65 1.34 4.3 1 6 C0.34 6 -0.32 6 -1 6 C-1 6.66 -1 7.32 -1 8 C-1.66 8 -2.32 8 -3 8 C-2.690625 7.236875 -2.38125 6.47375 -2.0625 5.6875 C-1.32106407 3.81210323 -0.63771783 1.91315348 0 0 Z " fill="#85BBDA" transform="translate(82,168)"/>
<path d="M0 0 C0 0.66 0 1.32 0 2 C0.66 2.33 1.32 2.66 2 3 C-1.50935186 3 -4.56484998 2.62457273 -8 2 C-4.91190305 0.23537317 -3.76687864 0 0 0 Z " fill="#81BDDC" transform="translate(57,308)"/>
<path d="M0 0 C2.61500768 2.36595933 4.38999603 4.86049226 6 8 C5.67 8.66 5.34 9.32 5 10 C0 4.5 0 4.5 0 0 Z " fill="#E2FAFE" transform="translate(348,177)"/>
<path d="M0 0 C0.66 0.33 1.32 0.66 2 1 C2.625 4.0625 2.625 4.0625 3 7 C1.02 5.35 -0.96 3.7 -3 2 C-2.01 1.34 -1.02 0.68 0 0 Z " fill="#94C7EB" transform="translate(329,148)"/>
<path d="M0 0 C3.77545388 1.09068668 6.47043472 1.9083091 9 5 C7.68428397 4.7452486 6.37239624 4.47065859 5.0625 4.1875 C4.33160156 4.03667969 3.60070312 3.88585937 2.84765625 3.73046875 C2.23792969 3.48941406 1.62820313 3.24835938 1 3 C0.67 2.01 0.34 1.02 0 0 Z " fill="#E6FAFE" transform="translate(297,129)"/>
<path d="M0 0 C3.68754757 0.49831724 5.60490662 1.10067643 8 4 C7.67 4.66 7.34 5.32 7 6 C5.83054208 5.19152271 4.66449539 4.37810888 3.5 3.5625 C2.8503125 3.11003906 2.200625 2.65757812 1.53125 2.19140625 C1.0259375 1.79824219 0.520625 1.40507812 0 1 C0 0.67 0 0.34 0 0 Z " fill="#E8F9FE" transform="translate(133,330)"/>
<path d="M0 0 C1.98 0.66 3.96 1.32 6 2 C2.86501708 3.85776765 0.62528568 4.20140476 -3 4 C-2 2 -2 2 0 0 Z " fill="#74BFE4" transform="translate(366,313)"/>
<path d="M0 0 C1.65 0 3.3 0 5 0 C5.33 2.31 5.66 4.62 6 7 C5.38125 6.21625 4.7625 5.4325 4.125 4.625 C2.10141339 2.03162353 2.10141339 2.03162353 0 0 Z " fill="#D8F1FB" transform="translate(264,309)"/>
<path d="M0 0 C0.99 0.33 1.98 0.66 3 1 C3 2.65 3 4.3 3 6 C1.68 5.67 0.36 5.34 -1 5 C-0.34 4.01 0.32 3.02 1 2 C0.34 1.67 -0.32 1.34 -1 1 C-0.67 0.67 -0.34 0.34 0 0 Z " fill="#94C8E5" transform="translate(338,308)"/>
<path d="M0 0 C-1.0975223 2.99324263 -1.67682892 3.84610901 -4.625 5.25 C-5.40875 5.4975 -6.1925 5.745 -7 6 C-5.52522876 2.59668175 -4.14385429 0 0 0 Z " fill="#EAFBFE" transform="translate(247,281)"/>
<path d="M0 0 C4.29 0 8.58 0 13 0 C10.09907498 1.93395001 9.10325263 2.30131941 5.8125 2.625 C4.554375 2.74875 3.29625 2.8725 2 3 C1.34 2.01 0.68 1.02 0 0 Z " fill="#E8FBFE" transform="translate(277,233)"/>
<path d="M0 0 C3.26954202 0.56371414 4.82575883 1.49962266 7 4 C6.67 4.99 6.34 5.98 6 7 C5.34 6.01 4.68 5.02 4 4 C1.94996045 2.80767387 1.94996045 2.80767387 0 2 C0 1.34 0 0.68 0 0 Z " fill="#8DBEDF" transform="translate(175,203)"/>
<path d="M0 0 C0.66 0.33 1.32 0.66 2 1 C-0.475 4.465 -0.475 4.465 -3 8 C-3.66 7.01 -4.32 6.02 -5 5 C-3.35 3.35 -1.7 1.7 0 0 Z " fill="#8FC5E5" transform="translate(328,55)"/>
<path d="M0 0 C4.8 2.46153846 4.8 2.46153846 5.8125 5.1875 C5.874375 5.785625 5.93625 6.38375 6 7 C5.34 7 4.68 7 4 7 C3.67 6.34 3.34 5.68 3 5 C2.01 4.34 1.02 3.68 0 3 C0 2.01 0 1.02 0 0 Z " fill="#8DBDDA" transform="translate(370,33)"/>
</svg>
